<svg width="802" height="173" viewBox="0 0 802 173" fill="none" xmlns="http://www.w3.org/2000/svg">
<g clip-path="url(#clip0_1915_68)">
<path d="M89.7197 40.7137C102.622 41.7904 113.203 49.1648 121.462 62.8378C133.851 83.3474 127.049 103.212 117.22 112.901C110.667 119.361 90.5841 139.063 56.9736 172.008C56.3167 172.228 55.772 172.229 55.3398 172.01C54.5068 171.587 54.0906 170.348 54.0908 168.293V131.854C54.0908 131.507 54.2308 131.174 54.4795 130.932C91.145 95.1171 110.017 76.5642 111.097 75.2733C112.176 73.9814 112.176 72.8507 111.097 71.8817H75.9541C75.2383 71.8817 74.6582 71.3032 74.6582 70.5897V42.0057C74.6582 41.2923 75.2383 40.7137 75.9541 40.7137H89.7197ZM71.4199 0.662964C72.077 0.442193 72.6224 0.441647 73.0547 0.661011C73.8876 1.08365 74.3039 2.32291 74.3037 4.37781V40.8163C74.3037 41.1635 74.1638 41.4963 73.915 41.7391C37.2458 77.5573 18.3727 96.1099 17.2969 97.3973C16.2173 98.6892 16.2174 99.82 17.2969 100.789H52.4404C53.1562 100.789 53.7363 101.367 53.7363 102.081V130.665C53.7363 131.378 53.1562 131.957 52.4404 131.957H38.6748C25.7729 130.88 15.192 123.506 6.93262 109.833C-5.45648 89.3232 1.34517 69.459 11.1748 59.7694C17.7279 53.3097 37.8095 33.6074 71.4199 0.662964Z" fill="url(#paint0_linear_1915_68)"/>
</g>
<path d="M775.165 145.037L749.995 105.865L727.158 145.037H700.82L737.493 86.3617L700.32 28.6862H727.158L752.328 67.6922L774.999 28.6862H801.336L764.83 87.1952L802.003 145.037H775.165Z" fill="white"/>
<path d="M650.103 47.5226V76.6938H689.275V95.1966H650.103V126.035H694.276V145.038H626.766V28.5197H694.276V47.5226H650.103Z" fill="white"/>
<path d="M613.711 145.038H590.374L537.532 65.192V145.038H514.195V28.5197H537.532L590.374 108.532V28.5197H613.711V145.038Z" fill="white"/>
<path d="M501.119 28.6862V145.037H477.782V69.3591L446.61 145.037H428.941L397.603 69.3591V145.037H374.266V28.6862H400.77L437.775 115.2L474.781 28.6862H501.119Z" fill="white"/>
<path d="M307.402 146.204C296.512 146.204 286.51 143.648 277.398 138.537C268.285 133.425 261.062 126.368 255.728 117.367C250.394 108.254 247.727 97.9747 247.727 86.5285C247.727 75.1934 250.394 65.0252 255.728 56.0238C261.062 46.9112 268.285 39.799 277.398 34.6871C286.51 29.5752 296.512 27.0193 307.402 27.0193C318.404 27.0193 328.406 29.5752 337.407 34.6871C346.52 39.799 353.687 46.9112 358.91 56.0238C364.245 65.0252 366.912 75.1934 366.912 86.5285C366.912 97.9747 364.245 108.254 358.91 117.367C353.687 126.368 346.52 133.425 337.407 138.537C328.295 143.648 318.293 146.204 307.402 146.204ZM307.402 125.368C314.404 125.368 320.571 123.812 325.905 120.7C331.239 117.478 335.407 112.921 338.407 107.032C341.408 101.142 342.908 94.3075 342.908 86.5285C342.908 78.7495 341.408 71.9707 338.407 66.192C335.407 60.3022 331.239 55.8015 325.905 52.6899C320.571 49.5783 314.404 48.0225 307.402 48.0225C300.401 48.0225 294.178 49.5783 288.733 52.6899C283.399 55.8015 279.231 60.3022 276.231 66.192C273.231 71.9707 271.73 78.7495 271.73 86.5285C271.73 94.3075 273.231 101.142 276.231 107.032C279.231 112.921 283.399 117.478 288.733 120.7C294.178 123.812 300.401 125.368 307.402 125.368Z" fill="white"/>
<path d="M201.994 146.204C193.881 146.204 186.547 144.815 179.99 142.037C173.545 139.259 168.433 135.258 164.655 130.035C160.876 124.812 158.931 118.645 158.82 111.532H183.824C184.158 116.311 185.824 120.089 188.825 122.867C191.937 125.646 196.159 127.035 201.494 127.035C206.939 127.035 211.217 125.757 214.329 123.201C217.44 120.534 218.996 117.089 218.996 112.866C218.996 109.421 217.941 106.587 215.829 104.365C213.718 102.142 211.051 100.42 207.828 99.1971C204.716 97.8636 200.382 96.4189 194.826 94.8631C187.269 92.6405 181.102 90.4735 176.323 88.3621C171.656 86.1395 167.599 82.8613 164.154 78.5273C160.821 74.0821 159.154 68.1923 159.154 60.8579C159.154 53.9679 160.876 47.967 164.321 42.8551C167.766 37.7432 172.6 33.8537 178.823 31.1866C185.047 28.4084 192.159 27.0193 200.16 27.0193C212.162 27.0193 221.886 29.9642 229.331 35.854C236.888 41.6327 241.055 49.745 241.833 60.1911H216.163C215.94 56.1905 214.218 52.9122 210.995 50.3562C207.883 47.6892 203.716 46.3556 198.493 46.3556C193.937 46.3556 190.27 47.5225 187.491 49.8561C184.824 52.1898 183.491 55.5793 183.491 60.0244C183.491 63.136 184.491 65.7475 186.491 67.8589C188.603 69.8592 191.159 71.5262 194.159 72.8597C197.271 74.0821 201.605 75.5268 207.161 77.1937C214.718 79.4163 220.885 81.6388 225.664 83.8614C230.442 86.084 234.554 89.4178 237.999 93.863C241.444 98.3081 243.167 104.142 243.167 111.366C243.167 117.589 241.555 123.368 238.333 128.702C235.11 134.036 230.387 138.314 224.164 141.537C217.941 144.649 210.551 146.204 201.994 146.204Z" fill="white"/>
<defs>
<linearGradient id="paint0_linear_1915_68" x1="29.5855" y1="37.6012" x2="133.147" y2="116.669" gradientUnits="userSpaceOnUse">
<stop stop-color="#16CDFF"/>
<stop offset="0.41213" stop-color="#6500FF"/>
<stop offset="0.721154" stop-color="#FF00E4"/>
<stop offset="1" stop-color="#D1003F"/>
</linearGradient>
<clipPath id="clip0_1915_68">
<rect width="127.927" height="171.677" fill="white" transform="translate(0.234375 0.496948)"/>
</clipPath>
</defs>
</svg>
