<svg width="137" height="26" viewBox="0 0 137 26" fill="none" xmlns="http://www.w3.org/2000/svg">
<rect width="26" height="26" rx="13" fill="url(#paint0_linear_7083_6806)"/>
<g clip-path="url(#clip0_7083_6806)">
<path d="M15.5769 8.43934C16.8657 8.54688 17.9228 9.28348 18.7478 10.6493C19.9852 12.698 19.3058 14.6824 18.324 15.6503C17.6691 16.2958 15.6631 18.2635 12.3064 21.5536C12.241 21.5756 12.1864 21.5763 12.1433 21.5546C12.0601 21.5124 12.0183 21.3878 12.0183 21.1825V17.5429C12.0184 17.5082 12.0326 17.4753 12.0574 17.4511C15.7185 13.8749 17.6036 12.0216 17.7127 11.8915C17.8204 11.7625 17.8203 11.6494 17.7127 11.5526H14.2019C14.1306 11.5525 14.0732 11.4947 14.073 11.4237V8.56824C14.073 8.49704 14.1305 8.43944 14.2019 8.43934H15.5769ZM13.7488 4.43836C13.8144 4.41631 13.8697 4.41645 13.9129 4.43836C13.9958 4.48078 14.0369 4.60453 14.0369 4.80946V8.4491C14.0369 8.48359 14.0234 8.51668 13.9988 8.5409C10.3359 12.1188 8.45001 13.9728 8.34254 14.1014C8.23495 14.2304 8.23478 14.3436 8.34254 14.4403H11.8533C11.9248 14.4403 11.9832 14.498 11.9832 14.5692V17.4247C11.9829 17.4958 11.9247 17.5536 11.8533 17.5536H10.4783C9.18956 17.4461 8.13241 16.7093 7.30738 15.3436C6.06988 13.295 6.74939 11.3106 7.73121 10.3427C8.38579 9.69741 10.3916 7.72907 13.7488 4.43836Z" fill="white"/>
</g>
<path d="M39.584 22.312C36.896 22.312 34.688 21.352 32.96 19.432L35.384 17.032C36.568 18.408 38.048 19.096 39.824 19.096C40.768 19.096 41.488 18.896 41.984 18.496C42.48 18.096 42.728 17.544 42.728 16.84C42.728 16.28 42.56 15.832 42.224 15.496C41.904 15.16 41.344 14.936 40.544 14.824L38.84 14.584C35.272 14.088 33.488 12.352 33.488 9.376C33.488 8.336 33.752 7.416 34.28 6.616C34.808 5.816 35.56 5.2 36.536 4.768C37.528 4.32 38.688 4.096 40.016 4.096C42.576 4.096 44.592 4.936 46.064 6.616L43.64 9.016C43.176 8.472 42.632 8.056 42.008 7.768C41.4 7.464 40.664 7.312 39.8 7.312C38.92 7.312 38.256 7.472 37.808 7.792C37.36 8.112 37.136 8.568 37.136 9.16C37.136 9.768 37.304 10.224 37.64 10.528C37.992 10.816 38.568 11.024 39.368 11.152L41.072 11.44C42.88 11.76 44.216 12.336 45.08 13.168C45.944 14 46.376 15.152 46.376 16.624C46.376 17.744 46.104 18.736 45.56 19.6C45.032 20.448 44.256 21.112 43.232 21.592C42.208 22.072 40.992 22.312 39.584 22.312ZM56.6094 22.312C55.0414 22.312 53.6814 21.968 52.5294 21.28C51.3774 20.576 50.4814 19.544 49.8414 18.184C49.2174 16.824 48.9054 15.168 48.9054 13.216C48.9054 11.264 49.2174 9.608 49.8414 8.248C50.4814 6.872 51.3774 5.84 52.5294 5.152C53.6814 4.448 55.0414 4.096 56.6094 4.096C58.1614 4.096 59.5134 4.448 60.6654 5.152C61.8174 5.84 62.7054 6.872 63.3294 8.248C63.9694 9.608 64.2894 11.264 64.2894 13.216C64.2894 15.168 63.9694 16.824 63.3294 18.184C62.7054 19.544 61.8174 20.576 60.6654 21.28C59.5134 21.968 58.1614 22.312 56.6094 22.312ZM56.6094 19.072C57.7774 19.072 58.7054 18.672 59.3934 17.872C60.0814 17.072 60.4254 15.96 60.4254 14.536V11.872C60.4254 10.448 60.0814 9.336 59.3934 8.536C58.7054 7.736 57.7774 7.336 56.6094 7.336C55.4094 7.336 54.4654 7.736 53.7774 8.536C53.1054 9.336 52.7694 10.448 52.7694 11.872V14.536C52.7694 15.96 53.1054 17.072 53.7774 17.872C54.4654 18.672 55.4094 19.072 56.6094 19.072ZM71.0099 22H67.5779V4.408H71.4419L75.8819 12.808H75.9539L80.3219 4.408H84.2099V22H80.7779V10.072H80.7059L79.4099 12.688L75.8819 19.096L72.4259 12.712L71.0819 9.928H71.0099V22ZM91.6349 22H88.2029V4.408H92.1869L97.2029 13.024L98.8829 16.6H98.9789V4.408H102.411V22H98.4269L93.4109 13.384L91.7069 9.808H91.6349V22ZM118.198 18.76V22H106.39V4.408H118.198V7.648H110.038V11.488H117.094V14.704H110.038V18.76H118.198ZM127.769 15.424L123.977 22H120.041L125.705 12.928L120.281 4.408H124.529L128.081 10.48H128.153L131.753 4.408H135.689L130.265 12.976L135.977 22H131.753L127.865 15.424H127.769Z" fill="url(#paint1_linear_7083_6806)"/>
<defs>
<linearGradient id="paint0_linear_7083_6806" x1="0" y1="0" x2="18.2943" y2="32.8692" gradientUnits="userSpaceOnUse">
<stop stop-color="#16CDFF"/>
<stop offset="0.41213" stop-color="#6500FF"/>
<stop offset="0.810048" stop-color="#FF00E4"/>
<stop offset="1" stop-color="#D1003F"/>
</linearGradient>
<linearGradient id="paint1_linear_7083_6806" x1="32" y1="12.5" x2="137" y2="12.5" gradientUnits="userSpaceOnUse">
<stop stop-color="#FF29D0"/>
<stop offset="1" stop-color="#1885FF"/>
</linearGradient>
<clipPath id="clip0_7083_6806">
<rect width="12.7787" height="17.1489" fill="white" transform="translate(6.63832 4.42188)"/>
</clipPath>
</defs>
</svg>
