<svg width="115" height="26" viewBox="0 0 115 26" fill="none" xmlns="http://www.w3.org/2000/svg">
<rect width="26" height="26" rx="13" fill="url(#paint0_linear_7472_2087)"/>
<g clip-path="url(#clip0_7472_2087)">
<path d="M15.5767 8.43934C16.8655 8.54688 17.9226 9.28348 18.7476 10.6493C19.985 12.698 19.3057 14.6824 18.3238 15.6503C17.6689 16.2958 15.6629 18.2635 12.3062 21.5536C12.2408 21.5756 12.1863 21.5763 12.1431 21.5546C12.0599 21.5124 12.0181 21.3878 12.0181 21.1825V17.5429C12.0182 17.5082 12.0324 17.4753 12.0572 17.4511C15.7183 13.8749 17.6034 12.0216 17.7125 11.8915C17.8203 11.7625 17.8201 11.6494 17.7125 11.5526H14.2017C14.1305 11.5525 14.0731 11.4947 14.0728 11.4237V8.56824C14.0728 8.49704 14.1303 8.43944 14.2017 8.43934H15.5767ZM13.7486 4.43836C13.8142 4.41631 13.8695 4.41645 13.9127 4.43836C13.9956 4.48078 14.0367 4.60453 14.0367 4.80946V8.4491C14.0367 8.48359 14.0232 8.51668 13.9986 8.5409C10.3357 12.1188 8.44983 13.9728 8.34236 14.1014C8.23477 14.2304 8.2346 14.3436 8.34236 14.4403H11.8531C11.9246 14.4403 11.983 14.498 11.983 14.5692V17.4247C11.9828 17.4958 11.9245 17.5536 11.8531 17.5536H10.4781C9.18937 17.4461 8.13222 16.7093 7.3072 15.3436C6.06969 13.295 6.7492 11.3106 7.73103 10.3427C8.38561 9.69741 10.3914 7.72907 13.7486 4.43836Z" fill="white"/>
</g>
<path d="M111.568 20.0897L108.349 15.4104L105.429 20.0897H102.061L106.75 13.0808L101.997 6.19141H105.429L108.648 10.8507L111.547 6.19141H114.915L110.247 13.1804L115 20.0897H111.568Z" fill="#F7FEFD"/>
<path d="M95.5743 8.4457V11.9302H100.584V14.1404H95.5743V17.824H101.224V20.0939H92.5898V6.17578H101.224V8.4457H95.5743Z" fill="#F7FEFD"/>
<path d="M90.9205 20.0939H87.936L81.1783 10.5563V20.0939H78.1938V6.17578H81.1783L87.936 15.7333V6.17578H90.9205V20.0939Z" fill="#F7FEFD"/>
<path d="M76.5216 6.19141V20.0897H73.5371V11.0498L69.5507 20.0897H67.291L63.2833 11.0498V20.0897H60.2988V6.19141H63.6883L68.4209 16.5255L73.1534 6.19141H76.5216Z" fill="#F7FEFD"/>
<path d="M51.7475 20.2367C50.3547 20.2367 49.0756 19.9314 47.9103 19.3208C46.7449 18.7102 45.8211 17.8673 45.139 16.7921C44.4568 15.7036 44.1157 14.4757 44.1157 13.1084C44.1157 11.7544 44.4568 10.5398 45.139 9.46461C45.8211 8.37611 46.7449 7.52655 47.9103 6.91593C49.0756 6.30531 50.3547 6 51.7475 6C53.1544 6 54.4335 6.30531 55.5846 6.91593C56.75 7.52655 57.6667 8.37611 58.3346 9.46461C59.0168 10.5398 59.3579 11.7544 59.3579 13.1084C59.3579 14.4757 59.0168 15.7036 58.3346 16.7921C57.6667 17.8673 56.75 18.7102 55.5846 19.3208C54.4193 19.9314 53.1402 20.2367 51.7475 20.2367ZM51.7475 17.7478C52.6428 17.7478 53.4316 17.562 54.1137 17.1903C54.7959 16.8053 55.3288 16.2611 55.7125 15.5575C56.0963 14.854 56.2881 14.0376 56.2881 13.1084C56.2881 12.1792 56.0963 11.3695 55.7125 10.6792C55.3288 9.97567 54.7959 9.43806 54.1137 9.06638C53.4316 8.69469 52.6428 8.50885 51.7475 8.50885C50.8521 8.50885 50.0563 8.69469 49.3599 9.06638C48.6777 9.43806 48.1448 9.97567 47.761 10.6792C47.3773 11.3695 47.1855 12.1792 47.1855 13.1084C47.1855 14.0376 47.3773 14.854 47.761 15.5575C48.1448 16.2611 48.6777 16.8053 49.3599 17.1903C50.0563 17.562 50.8521 17.7478 51.7475 17.7478Z" fill="#F7FEFD"/>
<path d="M38.2674 20.2367C37.2299 20.2367 36.2919 20.0708 35.4534 19.739C34.6292 19.4071 33.9754 18.9292 33.4922 18.3053C33.009 17.6814 32.7603 16.9447 32.7461 16.0951H35.9437C35.9864 16.6659 36.1996 17.1173 36.5833 17.4491C36.9812 17.781 37.5213 17.9469 38.2034 17.9469C38.8998 17.9469 39.447 17.7943 39.8449 17.489C40.2428 17.1704 40.4418 16.7589 40.4418 16.2544C40.4418 15.8429 40.3068 15.5044 40.0367 15.239C39.7667 14.9735 39.4256 14.7677 39.0135 14.6217C38.6156 14.4624 38.0613 14.2898 37.3507 14.104C36.3843 13.8385 35.5956 13.5797 34.9845 13.3274C34.3876 13.062 33.8688 12.6704 33.4283 12.1527C33.0019 11.6217 32.7887 10.9181 32.7887 10.042C32.7887 9.21903 33.009 8.50222 33.4496 7.8916C33.8901 7.28098 34.5084 6.81637 35.3042 6.49779C36.1001 6.16593 37.0096 6 38.0329 6C39.5678 6 40.8113 6.35177 41.7635 7.05531C42.7299 7.74558 43.2628 8.71461 43.3623 9.9624H40.0794C40.051 9.48452 39.8307 9.09293 39.4185 8.78762C39.0206 8.46903 38.4877 8.30974 37.8197 8.30974C37.237 8.30974 36.768 8.44912 36.4127 8.72788C36.0717 9.00664 35.9011 9.41151 35.9011 9.94248C35.9011 10.3142 36.029 10.6261 36.2848 10.8783C36.5549 11.1173 36.8817 11.3164 37.2654 11.4757C37.6634 11.6217 38.2176 11.7943 38.9282 11.9934C39.8946 12.2589 40.6834 12.5243 41.2945 12.7898C41.9056 13.0553 42.4314 13.4536 42.872 13.9845C43.3126 14.5155 43.5328 15.2124 43.5328 16.0752C43.5328 16.8186 43.3268 17.5089 42.9146 18.146C42.5025 18.7832 41.8985 19.2943 41.1026 19.6792C40.3068 20.0509 39.3617 20.2367 38.2674 20.2367Z" fill="#F7FEFD"/>
<defs>
<linearGradient id="paint0_linear_7472_2087" x1="0" y1="0" x2="18.2943" y2="32.8692" gradientUnits="userSpaceOnUse">
<stop stop-color="#16CDFF"/>
<stop offset="0.41213" stop-color="#6500FF"/>
<stop offset="0.810048" stop-color="#FF00E4"/>
<stop offset="1" stop-color="#D1003F"/>
</linearGradient>
<clipPath id="clip0_7472_2087">
<rect width="12.7787" height="17.1489" fill="white" transform="translate(6.63818 4.42188)"/>
</clipPath>
</defs>
</svg>
